<?xml version="1.0" encoding="iso-8859-1"?>
<!-- Generator: Adobe Illustrator 16.0.0, SVG Export Plug-In . SVG Version: 6.00 Build 0)  -->
<!DOCTYPE svg PUBLIC "-//W3C//DTD SVG 1.1//EN" "http://www.w3.org/Graphics/SVG/1.1/DTD/svg11.dtd">
<svg xmlns="http://www.w3.org/2000/svg" xmlns:xlink="http://www.w3.org/1999/xlink" version="1.1" id="Capa_1" x="0px" y="0px" width="512px" height="512px" viewBox="0 0 79.536 79.536" style="enable-background:new 0 0 79.536 79.536;" xml:space="preserve">
<g>
	<path d="M68.973,53.884l-17.605,0.052C44.397,47.406,41.27,39.75,41.27,39.75h-0.124   c0,0-3.218,7.951-10.387,14.186H10.701l28.607-40.612l-2.149-2.762l2.123-1.655l1.737,2.217v-0.016v0.016l1.732-2.217l2.128,1.655   l-2.139,2.762L68.973,53.884z M10.737,70.63l-2.677-4.65l-2.693-4.66l-2.685,4.66L0,70.63h5.367H10.737z M27.944,70.63l-2.692-4.65   l-2.685-4.66l-2.682,4.66l-2.693,4.65h5.375H27.944z M45.133,70.63l-2.683-4.65l-2.682-4.66l-2.693,4.66l-2.685,4.65h5.378H45.133z    M62.335,70.63l-2.683-4.65l-2.692-4.66l-2.683,4.66l-2.683,4.65h5.365H62.335z M79.536,70.63l-2.692-4.65l-2.683-4.66l-2.682,4.66   l-2.693,4.65h5.375H79.536z" fill="#D80027"/>
</g>
<g>
</g>
<g>
</g>
<g>
</g>
<g>
</g>
<g>
</g>
<g>
</g>
<g>
</g>
<g>
</g>
<g>
</g>
<g>
</g>
<g>
</g>
<g>
</g>
<g>
</g>
<g>
</g>
<g>
</g>
</svg>
